# Blender v2.92.0 OBJ File: 'untitled.blend'
# www.blender.org
mtllib kaseta.mtl
o Cube.006_Cube.001
v 0.019982 -0.015190 0.257724
v 0.019982 -0.015190 -0.194502
v 0.019982 -0.056877 0.257724
v 0.019982 -0.376012 0.257724
v 0.019982 -0.376012 -0.194502
v 0.019982 -0.056877 -0.194502
v -0.019982 -0.015190 0.257724
v -0.019982 -0.015190 -0.194502
v -0.019982 -0.056877 0.257724
v -0.019982 -0.376012 0.257724
v -0.019982 -0.376012 -0.194502
v -0.019982 -0.056877 -0.194502
v -0.040360 -0.443618 0.331756
v -0.040360 0.241791 0.331756
v -0.040360 -0.443618 -0.296394
v 0.040360 -0.443618 0.331756
v 0.040360 0.241791 0.331756
v 0.040360 -0.443618 -0.296394
v -0.040360 0.241791 -0.221543
v -0.040360 0.166940 -0.296394
v 0.040360 0.166940 -0.296394
v 0.040360 0.241791 -0.221543
v 0.019982 0.241791 0.257724
v 0.019982 0.241791 -0.194502
v 0.040360 0.241791 -0.194502
v 0.040360 -0.015190 -0.194502
v 0.040360 -0.015190 0.257724
v 0.040360 0.241791 0.257724
v 0.040360 -0.376012 -0.194502
v 0.040360 -0.056877 -0.194502
v 0.040360 -0.376012 0.257724
v 0.040360 -0.056877 0.257724
v -0.019982 0.241791 0.257724
v -0.019982 0.241791 -0.194502
v -0.040360 -0.015190 -0.194502
v -0.040360 0.241791 -0.194502
v -0.040360 -0.015190 0.257724
v -0.040360 0.241791 0.257724
v -0.040360 -0.376012 -0.194502
v -0.040360 -0.056877 -0.194502
v -0.040360 -0.376012 0.257724
v -0.040360 -0.056877 0.257724
v -0.046894 0.015473 0.173526
v -0.046894 0.251382 0.173526
v -0.046894 0.251382 -0.157891
v 0.046894 0.015473 0.173526
v 0.046894 0.251382 0.173526
v 0.046894 0.251382 -0.157891
v -0.046894 0.045147 -0.157891
v -0.046894 0.015473 -0.128217
v 0.046894 0.015473 -0.128217
v 0.046894 0.045147 -0.157891
v 0.046894 0.032775 -0.108754
v -0.046894 0.032775 -0.108754
v -0.046894 0.208730 -0.108754
v 0.046894 0.208730 -0.108754
v 0.046894 0.032775 -0.020250
v -0.046894 0.032775 -0.020250
v 0.046894 0.208730 -0.020250
v -0.046894 0.208730 -0.020250
vt 0.125000 0.500000
vt 0.375000 0.500000
vt 0.375000 0.750000
vt 0.125000 0.750000
vt 0.375000 0.250000
vt 0.596731 0.250000
vt 0.596731 0.500000
vt 0.625000 0.540552
vt 0.625000 0.529790
vt 0.875000 0.529790
vt 0.875000 0.540552
vt 0.811886 0.540552
vt 0.811886 0.720536
vt 0.875000 0.720536
vt 0.875000 0.750000
vt 0.625000 0.750000
vt 0.625000 0.720536
vt 0.688114 0.720536
vt 0.688114 0.540552
vt 0.625000 1.000000
vt 0.375000 1.000000
vt 0.592278 0.000000
vt 0.375000 0.000000
vt 0.375000 0.250000
vt 0.592278 0.250000
vt 0.592278 0.255189
vt 0.375000 0.255189
vt 0.375000 1.000000
vt 0.592278 1.000000
vt 0.592277 0.994811
vt 0.375000 0.994811
vt 0.130189 0.500000
vt 0.125000 0.500000
vt 0.125000 0.750000
vt 0.130189 0.750000
vt 0.625000 0.000000
vt 0.375000 0.000000
vt 0.375000 0.250000
vt 0.625000 0.250000
vt 0.375000 0.255189
vt 0.625000 0.255189
vt 0.375000 1.000000
vt 0.625000 1.000000
vt 0.625000 0.994811
vt 0.375000 0.994811
vt 0.130189 0.500000
vt 0.125000 0.500000
vt 0.125000 0.750000
vt 0.130189 0.750000
vt 0.875000 0.750000
vt 0.875000 0.500000
vt 0.869811 0.500000
vt 0.869810 0.750000
vt 0.375000 0.250000
vt 0.375000 0.000000
vt 0.592278 0.000000
vt 0.592278 0.250000
vt 0.592277 0.255189
vt 0.375000 0.255189
vt 0.592277 0.994811
vt 0.592278 1.000000
vt 0.375000 1.000000
vt 0.375000 0.994811
vt 0.130189 0.750000
vt 0.125000 0.750000
vt 0.125000 0.500000
vt 0.130189 0.500000
vt 0.375000 0.000000
vt 0.625000 0.000000
vt 0.625000 0.250000
vt 0.375000 0.250000
vt 0.625000 0.255189
vt 0.375000 0.255189
vt 0.625000 1.000000
vt 0.375000 1.000000
vt 0.375000 0.994811
vt 0.625000 0.994811
vt 0.130189 0.750000
vt 0.125000 0.750000
vt 0.125000 0.500000
vt 0.130189 0.500000
vt 0.869810 0.500000
vt 0.875000 0.500000
vt 0.875000 0.750000
vt 0.869811 0.750000
vt 0.512203 0.540552
vt 0.527947 0.540552
vt 0.527946 0.720536
vt 0.512203 0.720536
vt 0.400533 0.540552
vt 0.400533 0.720536
vt 0.625000 0.220210
vt 0.375000 0.000000
vt 0.625000 0.000000
vt 0.625000 0.029464
vt 0.527946 0.029464
vt 0.512203 0.029464
vt 0.400533 0.029464
vt 0.400533 0.209448
vt 0.512203 0.209448
vt 0.527947 0.209448
vt 0.625000 0.209448
vt 0.625000 0.250000
vt 0.625000 0.500000
vt 0.406446 0.250000
vt 0.625000 0.250000
vt 0.625000 0.500000
vt 0.406446 0.500000
vt 0.375000 0.750000
vt 0.625000 0.750000
vt 0.625000 1.000000
vt 0.375000 1.000000
vt 0.875000 0.500000
vt 0.875000 0.750000
vt 0.375000 0.522384
vt 0.125000 0.522384
vt 0.125000 0.500000
vt 0.375000 0.500000
vt 0.125000 0.750000
vt 0.375000 0.412141
vt 0.625000 0.412141
vt 0.625000 0.337859
vt 0.375000 0.337859
vt 0.625000 0.912141
vt 0.625000 0.837859
vt 0.375000 0.837859
vt 0.375000 0.912141
vt 0.287141 0.500000
vt 0.212859 0.500000
vt 0.212859 0.750000
vt 0.287141 0.750000
vt 0.712859 0.750000
vt 0.787141 0.750000
vt 0.787141 0.500000
vt 0.712859 0.500000
vt 0.393335 0.537066
vt 0.579800 0.537066
vt 0.393335 0.603828
vt 0.579800 0.603828
vt 0.375000 0.227616
vt 0.393335 0.212934
vt 0.579800 0.212934
vt 0.375000 0.000000
vt 0.625000 0.000000
vt 0.579800 0.146172
vt 0.393335 0.146172
vn 0.0000 -1.0000 0.0000
vn 0.0000 0.0000 -1.0000
vn 0.0000 1.0000 0.0000
vn 0.0000 0.0000 1.0000
vn 1.0000 0.0000 0.0000
vn -1.0000 0.0000 0.0000
vn 0.0000 0.7071 -0.7071
vn 0.0000 -0.7071 -0.7071
usemtl None
s off
f 15/1/1 18/2/1 16/3/1 13/4/1
f 15/5/2 20/6/2 21/7/2 18/2/2
f 25/8/3 22/9/3 19/10/3 36/11/3 34/12/3 33/13/3 38/14/3 14/15/3 17/16/3 28/17/3 23/18/3 24/19/3
f 16/3/4 17/16/4 14/20/4 13/21/4
f 23/22/5 1/23/5 2/24/5 24/25/5
f 25/26/4 24/25/4 2/24/4 26/27/4
f 1/28/2 23/29/2 28/30/2 27/31/2
f 26/32/3 2/33/3 1/34/3 27/35/3
f 3/36/5 4/37/5 5/38/5 6/39/5
f 6/39/4 5/38/4 29/40/4 30/41/4
f 4/42/2 3/43/2 32/44/2 31/45/2
f 29/46/3 5/47/3 4/48/3 31/49/3
f 3/50/1 6/51/1 30/52/1 32/53/1
f 8/54/6 7/55/6 33/56/6 34/57/6
f 36/58/4 35/59/4 8/54/4 34/57/4
f 38/60/2 33/61/2 7/62/2 37/63/2
f 37/64/3 7/65/3 8/66/3 35/67/3
f 10/68/6 9/69/6 12/70/6 11/71/6
f 11/71/4 12/70/4 40/72/4 39/73/4
f 9/74/2 10/75/2 41/76/2 42/77/2
f 41/78/3 10/79/3 11/80/3 39/81/3
f 40/82/1 12/83/1 9/84/1 42/85/1
f 30/86/5 26/87/5 27/88/5 32/89/5
f 17/16/5 16/3/5 18/2/5 21/7/5 22/9/5 25/8/5 26/87/5 30/86/5 29/90/5 31/91/5 32/89/5 27/88/5 28/17/5
f 19/92/6 20/6/6 15/5/6 13/93/6 14/94/6 38/95/6 37/96/6 42/97/6 41/98/6 39/99/6 40/100/6 35/101/6 36/102/6
f 37/96/6 35/101/6 40/100/6 42/97/6
f 19/103/7 22/104/7 21/7/7 20/6/7
f 49/105/2 45/106/2 48/107/2 52/108/2
f 46/109/4 47/110/4 44/111/4 43/112/4
f 48/107/3 45/113/3 44/114/3 47/110/3
f 51/115/8 50/116/8 49/117/8 52/118/8
f 50/116/1 51/115/1 46/109/1 43/119/1
f 53/120/4 56/121/4 55/122/4 54/123/4
f 60/124/2 59/125/2 57/126/2 58/127/2
f 53/128/3 54/129/3 58/130/3 57/131/3
f 59/132/1 60/133/1 55/134/1 56/135/1
f 53/136/5 51/115/5 52/108/5 48/107/5 56/137/5
f 56/137/5 48/107/5 47/110/5 46/109/5 51/115/5 53/136/5 57/138/5 59/139/5
f 45/106/6 49/105/6 50/140/6 54/141/6 55/142/6
f 50/140/6 43/143/6 44/144/6 45/106/6 55/142/6 60/145/6 58/146/6 54/141/6
